<svg width="120" height="120" viewBox="0 0 120 120" fill="none" xmlns="http://www.w3.org/2000/svg">
  <defs>
    <linearGradient id="meHexGradient" x1="10%" y1="10%" x2="90%" y2="90%">
      <stop offset="0%" stop-color="#1E7BE3" />
      <stop offset="40%" stop-color="#0B4FA6" />
      <stop offset="75%" stop-color="#072045" />
      <stop offset="100%" stop-color="#020813" />
    </linearGradient>
    <filter id="logoShadow" x="-10%" y="-10%" width="120%" height="120%">
      <feDropShadow dx="0" dy="4" stdDeviation="4" flood-color="#0A2540" flood-opacity="0.3" />
    </filter>
  </defs>
  <path
    d="M60 8
       C 63.5 8, 66.5 9.8, 68.3 12.8
       L 103.7 33.2
       C 106.8 35, 108.7 38.3, 108.7 41.8
       L 108.7 82.6
       C 108.7 86.1, 106.8 89.4, 103.7 91.2
       L 68.3 111.6
       C 66.5 114.6, 63.5 116.4, 60 116.4
       C 56.5 116.4, 53.5 114.6, 51.7 111.6
       L 16.3 91.2
       C 13.2 89.4, 11.3 86.1, 11.3 82.6
       L 11.3 41.8
       C 11.3 38.3, 13.2 35, 16.3 33.2
       L 51.7 12.8
       C 53.5 9.8, 56.5 8, 60 8 Z"
    fill="url(#meHexGradient)"
    filter="url(#logoShadow)"
  />
  <path d="M60 21 L60 103" stroke="#FFFFFF" stroke-width="4.5" stroke-linecap="round" />
  <path d="M35 37 L35 87" stroke="#FFFFFF" stroke-width="6" stroke-linecap="round" />
  <path d="M48 29 L48 95" stroke="#FFFFFF" stroke-width="6" stroke-linecap="round" />
  <path d="M72 43 L95 43" stroke="#FFFFFF" stroke-width="6" stroke-linecap="round" />
  <path d="M72 62 L92 62" stroke="#FFFFFF" stroke-width="6" stroke-linecap="round" />
  <path d="M72 81 L95 81" stroke="#FFFFFF" stroke-width="6" stroke-linecap="round" />
</svg>
